<?xml version="1.0" standalone="no"?><!DOCTYPE svg PUBLIC "-//W3C//DTD SVG 1.1//EN" "http://www.w3.org/Graphics/SVG/1.1/DTD/svg11.dtd"><svg t="1586260682167" class="icon" viewBox="0 0 1024 1024" version="1.1" xmlns="http://www.w3.org/2000/svg" p-id="9814" width="16" height="16" xmlns:xlink="http://www.w3.org/1999/xlink"><defs><style type="text/css"></style></defs><path d="M371.2 608l368 230.4-33.6 52.8-368-230.4 33.6-52.8z" fill="#3d4757" p-id="9815"></path><path d="M684.8 958.4l-84.8 19.2 310.4-492.8-316.8-198.4-329.6 526.4 283.2 177.6-84.8 19.2L204.8 848c-14.4-9.6-19.2-28.8-9.6-43.2l363.2-577.6c9.6-14.4 28.8-19.2 43.2-9.6l368 230.4c14.4 9.6 19.2 28.8 9.6 43.2L684.8 958.4z" fill="#3d4757" p-id="9816"></path><path d="M411.2 960h593.6v62.4H468.8zM392 382.4l-12.8-30.4c0-1.6-1.6-1.6-1.6-1.6h-176c-1.6 0-1.6 0-1.6 1.6L144 486.4c0 1.6-1.6 1.6-1.6 1.6H72c-1.6 0-1.6-1.6-1.6-3.2L256 54.4c0-1.6 1.6-1.6 1.6-1.6h64c1.6 0 1.6 0 1.6 1.6l112 260.8m-80-28.8l-62.4-139.2c-1.6-1.6-3.2-1.6-4.8 0l-64 139.2c-1.6 1.6 0 3.2 1.6 3.2H352c3.2 1.6 3.2 0 3.2-3.2z" fill="#3d4757" p-id="9817"></path></svg>