<?xml version="1.0" standalone="no"?><!DOCTYPE svg PUBLIC "-//W3C//DTD SVG 1.1//EN" "http://www.w3.org/Graphics/SVG/1.1/DTD/svg11.dtd"><svg t="1586421473972" class="icon" viewBox="0 0 1024 1024" version="1.1" xmlns="http://www.w3.org/2000/svg" p-id="61759" width="16" height="16" xmlns:xlink="http://www.w3.org/1999/xlink"><defs><style type="text/css"></style></defs><path d="M587.89 386.85L403.06 571.69a35 35 0 1 0 49.49 49.49l184.84-184.83a35 35 0 0 0-49.5-49.5z" fill="#3D4757" p-id="61760"></path><path d="M508 716.85l-130 130a138.74 138.74 0 0 1-196.18-196.23l130-130a35 35 0 0 0-49.5-49.5l-130 130a208.74 208.74 0 0 0 295.21 295.2l130-130A35 35 0 0 0 508 716.85zM901 127.67a208.73 208.73 0 0 0-295.2 0l-130 130a35 35 0 0 0 49.5 49.49l130-130a138.74 138.74 0 1 1 196.2 196.21l-130 130a35 35 0 0 0 49.5 49.5l130-130a208.73 208.73 0 0 0 0-295.2z" fill="#3D4757" p-id="61761"></path></svg>