<?xml version="1.0" standalone="no"?><!DOCTYPE svg PUBLIC "-//W3C//DTD SVG 1.1//EN" "http://www.w3.org/Graphics/SVG/1.1/DTD/svg11.dtd"><svg t="1586421054364" class="icon" viewBox="0 0 1024 1024" version="1.1" xmlns="http://www.w3.org/2000/svg" p-id="57258" width="16" height="16" xmlns:xlink="http://www.w3.org/1999/xlink"><defs><style type="text/css"></style></defs><path d="M976.213333 986.453333h-955.733333v-955.733333h955.733333v955.733333z m-887.466666-68.266666h819.2v-819.2h-819.2v819.2z" fill="#3D4757" p-id="57259"></path><path d="M658.773333 826.026667L332.8 500.053333l-155.306667 155.306667-47.786666-47.786667 203.093333-203.093333 373.76 373.76zM812.373333 655.36l-121.173333-121.173333-69.973333 69.973333-47.786667-47.786667 117.76-117.76 168.96 168.96z" fill="#3D4757" p-id="57260"></path><path d="M546.133333 409.6c-56.32 0-102.4-46.08-102.4-102.4s46.08-102.4 102.4-102.4 102.4 46.08 102.4 102.4-46.08 102.4-102.4 102.4z m0-136.533333c-18.773333 0-34.133333 15.36-34.133333 34.133333s15.36 34.133333 34.133333 34.133333 34.133333-15.36 34.133334-34.133333-15.36-34.133333-34.133334-34.133333z" fill="#3D4757" p-id="57261"></path></svg>