<?xml version="1.0" standalone="no"?><!DOCTYPE svg PUBLIC "-//W3C//DTD SVG 1.1//EN" "http://www.w3.org/Graphics/SVG/1.1/DTD/svg11.dtd"><svg t="1586417952736" class="icon" viewBox="0 0 1024 1024" version="1.1" xmlns="http://www.w3.org/2000/svg" p-id="31110" width="16" height="16" xmlns:xlink="http://www.w3.org/1999/xlink"><defs><style type="text/css"></style></defs><path d="M771.010567 415.876756c0-194.228633-157.444868-351.723643-351.770716-351.723644-194.228633 0-351.675548 157.49501-351.675548 351.723644 0 194.23068 157.445892 351.724667 351.675548 351.724666 194.325847-0.001023 351.770715-157.49501 351.770716-351.724666zM419.239851 679.681c-145.671731 0-263.709077-118.085442-263.709077-263.805268 0-145.671731 118.037347-263.804245 263.709077-263.804244 145.769968 0 263.804245 118.132514 263.804245 263.804244 0 145.721873-118.034277 263.805268-263.804245 263.805268z" p-id="31111" fill="#3D4757"></path><path d="M933.225065 824.769446L741.819734 633.363092c-27.53717 45.831838-66.071811 84.271312-112.003933 111.808482L821.319369 936.676166c30.946826 30.894637 81.060177 30.894637 111.904673 0 30.946826-30.848589 30.946826-81.060177 0.001023-111.90672z" p-id="31112" fill="#3D4757"></path></svg>